<?xml version="1.0" encoding="UTF-8"?>
<!DOCTYPE svg PUBLIC "-//W3C//DTD SVG 1.1//EN" "http://www.w3.org/Graphics/SVG/1.1/DTD/svg11.dtd">
<svg xmlns="http://www.w3.org/2000/svg" version="1.1" width="612px" height="408px" style="shape-rendering:geometricPrecision; text-rendering:geometricPrecision; image-rendering:optimizeQuality; fill-rule:evenodd; clip-rule:evenodd" xmlns:xlink="http://www.w3.org/1999/xlink">
<g><path style="opacity:1" fill="#141414" d="M 220.5,157.5 C 221.209,158.404 222.209,158.737 223.5,158.5C 223.517,156.435 223.85,154.435 224.5,152.5C 231.479,153.155 237.146,156.155 241.5,161.5C 241.833,162.5 242.5,163.167 243.5,163.5C 243.842,164.338 244.508,164.672 245.5,164.5C 245.5,164.167 245.5,163.833 245.5,163.5C 244.71,162.599 243.71,161.932 242.5,161.5C 242.64,159.876 241.973,158.71 240.5,158C 241.406,156.301 241.739,154.467 241.5,152.5C 251.839,152.334 262.172,152.5 272.5,153C 274.405,154.87 276.572,156.37 279,157.5C 279.273,155.899 279.773,154.399 280.5,153C 298.833,152.333 317.167,152.333 335.5,153C 336.617,156.073 336.784,159.24 336,162.5C 334.301,163.406 332.467,163.739 330.5,163.5C 327.976,162.2 325.309,162.2 322.5,163.5C 322.624,164.107 322.957,164.44 323.5,164.5C 324.117,164.611 324.617,164.944 325,165.5C 325.401,168.699 326.234,171.699 327.5,174.5C 327.229,176.38 327.896,177.713 329.5,178.5C 331.081,180.142 331.747,182.142 331.5,184.5C 332.301,186.793 332.968,186.46 333.5,183.5C 335.569,175.137 338.736,167.137 343,159.5C 343.236,157.236 343.736,155.069 344.5,153C 368.167,152.333 391.833,152.333 415.5,153C 426.019,155.855 430.519,162.688 429,173.5C 427.42,178.159 424.92,181.492 421.5,183.5C 424.059,187.286 426.059,191.286 427.5,195.5C 428.5,195.5 429.5,195.5 430.5,195.5C 430.819,197.75 430.319,199.75 429,201.5C 425.546,201.851 422.046,201.351 418.5,200C 415.564,196.374 412.898,192.54 410.5,188.5C 407.298,185.568 403.631,184.901 399.5,186.5C 398.205,189.986 398.205,193.486 399.5,197C 399.051,199.283 397.717,200.783 395.5,201.5C 384.542,200.891 373.542,200.558 362.5,200.5C 359.611,200.931 356.778,201.597 354,202.5C 349.669,199.863 348.503,196.197 350.5,191.5C 353.704,190.796 356.871,190.13 360,189.5C 369.168,189.509 378.335,189.843 387.5,190.5C 387.335,188.173 386.669,186.007 385.5,184C 382.689,183.371 379.856,182.871 377,182.5C 369.175,182.629 361.341,182.962 353.5,183.5C 350.26,181.897 348.76,179.231 349,175.5C 345.575,183.358 342.408,191.358 339.5,199.5C 336.235,201.094 332.735,202.094 329,202.5C 326.347,201.847 324.68,200.18 324,197.5C 321.865,189.094 318.865,181.094 315,173.5C 314.231,176.099 314.398,178.599 315.5,181C 314.833,181.667 314.167,182.333 313.5,183C 302.921,183.263 292.254,182.93 281.5,182C 280.975,181.308 280.308,180.808 279.5,180.5C 278.167,181.5 276.833,182.5 275.5,183.5C 276.704,186.415 278.704,188.581 281.5,190C 293.514,190.167 305.514,190.667 317.5,191.5C 317.974,194.745 317.974,198.079 317.5,201.5C 303.111,200.903 288.611,200.903 274,201.5C 270.305,196.638 266.805,191.638 263.5,186.5C 260.833,185.167 258.167,185.167 255.5,186.5C 255.167,187.167 254.833,187.833 254.5,188.5C 254.982,191.52 255.315,194.52 255.5,197.5C 255.363,199.107 254.696,200.441 253.5,201.5C 250.634,200.205 247.801,200.205 245,201.5C 243.681,199.75 243.181,197.75 243.5,195.5C 244.629,193.372 244.796,191.039 244,188.5C 242.961,189.244 242.461,190.244 242.5,191.5C 238.002,198.416 231.668,201.583 223.5,201C 222.167,193.667 220.833,193.667 219.5,201C 217.343,201.078 215.343,201.245 213.5,201.5C 204.526,197.814 198.526,191.481 195.5,182.5C 189.812,183.589 184.146,183.589 178.5,182.5C 178.5,188.5 178.5,194.5 178.5,200.5C 175.145,201.618 171.812,201.618 168.5,200.5C 167.434,191.507 166.934,182.507 167,173.5C 167.5,173 168,172.5 168.5,172C 175.492,171.5 182.492,171.334 189.5,171.5C 191.607,172.468 193.941,172.802 196.5,172.5C 196.5,171.5 196.5,170.5 196.5,169.5C 196.989,168.005 197.655,166.671 198.5,165.5C 199.922,165.25 200.922,164.417 201.5,163C 199.613,162.22 197.946,162.387 196.5,163.5C 187.161,163.666 177.827,163.5 168.5,163C 167.565,160.619 167.232,158.119 167.5,155.5C 168.167,154.5 168.833,153.5 169.5,152.5C 180.04,152.799 190.54,152.465 201,151.5C 201.772,151.645 202.439,151.978 203,152.5C 203.202,154.256 203.702,155.922 204.5,157.5C 208.291,155.269 212.291,153.602 216.5,152.5C 219.911,152.403 221.245,154.07 220.5,157.5 Z M 220.5,160.5 C 225.269,163.042 229.769,166.042 234,169.5C 238.172,181.368 234.172,188.701 222,191.5C 215.684,190.583 210.851,187.083 207.5,181C 206.136,172.32 209.802,166.653 218.5,164C 219.823,163.184 220.489,162.017 220.5,160.5 Z M 247.5,173.5 C 246.922,170.72 246.255,168.053 245.5,165.5C 245.5,165.167 245.5,164.833 245.5,164.5C 252.117,163.411 258.783,163.244 265.5,164C 271.751,165.176 273.085,168.51 269.5,174C 262.021,175.413 254.687,175.246 247.5,173.5 Z M 282.5,163.5 C 292.013,163.565 301.347,163.565 310.5,163.5C 311.795,166.012 312.461,168.679 312.5,171.5C 303.494,171.666 294.494,171.5 285.5,171C 283.7,168.886 282.7,166.386 282.5,163.5 Z M 418.5,169.5 C 417.197,171.142 415.864,172.809 414.5,174.5C 406.202,174.325 397.868,173.992 389.5,173.5C 388.365,172.897 387.365,172.564 386.5,172.5C 374.628,171.178 362.628,171.178 350.5,172.5C 350.167,172.333 349.833,172.167 349.5,172C 351.105,169.457 352.438,166.791 353.5,164C 372.212,163.613 390.879,163.447 409.5,163.5C 414.043,163.33 417.043,165.33 418.5,169.5 Z"/></g>
<g><path style="opacity:1" fill="#d2d2d2" d="M 169.5,152.5 C 168.833,153.5 168.167,154.5 167.5,155.5C 166.325,155.719 165.325,155.386 164.5,154.5C 166.022,153.438 167.688,152.771 169.5,152.5 Z"/></g>
<g><path style="opacity:1" fill="#bcbcbc" d="M 224.5,152.5 C 223.85,154.435 223.517,156.435 223.5,158.5C 222.209,158.737 221.209,158.404 220.5,157.5C 221.975,155.993 223.309,154.327 224.5,152.5 Z"/></g>
<g><path style="opacity:1" fill="#9c9c9c" d="M 196.5,163.5 C 197.946,162.387 199.613,162.22 201.5,163C 200.922,164.417 199.922,165.25 198.5,165.5C 199.66,163.797 198.993,163.131 196.5,163.5 Z"/></g>
<g><path style="opacity:1" fill="#b2b2b2" d="M 241.5,161.5 C 241.833,161.5 242.167,161.5 242.5,161.5C 243.71,161.932 244.71,162.599 245.5,163.5C 244.833,163.5 244.167,163.5 243.5,163.5C 242.5,163.167 241.833,162.5 241.5,161.5 Z"/></g>
<g><path style="opacity:1" fill="#8e8e8e" d="M 330.5,163.5 C 327.941,163.198 325.607,163.532 323.5,164.5C 322.957,164.44 322.624,164.107 322.5,163.5C 325.309,162.2 327.976,162.2 330.5,163.5 Z"/></g>
<g><path style="opacity:1" fill="#aaaaaa" d="M 245.5,165.5 C 246.255,168.053 246.922,170.72 247.5,173.5C 245.631,171.365 244.964,168.698 245.5,165.5 Z"/></g>
<g><path style="opacity:1" fill="#d5d5d5" d="M 196.5,169.5 C 196.5,170.5 196.5,171.5 196.5,172.5C 193.941,172.802 191.607,172.468 189.5,171.5C 192.211,171.815 194.544,171.148 196.5,169.5 Z"/></g>
<g><path style="opacity:1" fill="#7c7c7c" d="M 418.5,169.5 C 418.631,172.367 417.297,174.033 414.5,174.5C 415.864,172.809 417.197,171.142 418.5,169.5 Z"/></g>
<g><path style="opacity:1" fill="#838383" d="M 386.5,172.5 C 387.365,172.564 388.365,172.897 389.5,173.5C 388.313,174.534 387.48,175.867 387,177.5C 386.598,176.128 386.098,174.795 385.5,173.5C 385.624,172.893 385.957,172.56 386.5,172.5 Z"/></g>
<g><path style="opacity:1" fill="#d2d2d2" d="M 327.5,174.5 C 328.674,175.514 329.34,176.847 329.5,178.5C 327.896,177.713 327.229,176.38 327.5,174.5 Z"/></g>
<g><path style="opacity:1" fill="#a9a9a9" d="M 333.5,183.5 C 332.968,186.46 332.301,186.793 331.5,184.5C 332.167,184.167 332.833,183.833 333.5,183.5 Z"/></g>
<g><path style="opacity:1" fill="#a0a0a0" d="M 243.5,195.5 C 243.768,193.901 243.434,192.568 242.5,191.5C 242.461,190.244 242.961,189.244 244,188.5C 244.796,191.039 244.629,193.372 243.5,195.5 Z"/></g>
<g><path style="opacity:1" fill="#e69b4b" d="M 290.5,230.5 C 289.883,230.389 289.383,230.056 289,229.5C 287.274,223.968 286.274,218.301 286,212.5C 283.624,210.256 280.957,209.923 278,211.5C 274.708,217.521 272.208,223.854 270.5,230.5C 269.5,230.5 268.5,230.5 267.5,230.5C 270.321,224.188 273.155,217.855 276,211.5C 279.07,206.799 282.736,206.465 287,210.5C 288.492,217.123 289.658,223.79 290.5,230.5 Z"/></g>
<g><path style="opacity:1" fill="#ee9337" d="M 239.5,240.5 C 238.306,236.611 238.472,232.611 240,228.5C 241.798,225.322 243.298,221.988 244.5,218.5C 245.597,216.465 247.263,215.132 249.5,214.5C 248.838,211.639 247.338,210.973 245,212.5C 241.624,215.708 238.457,219.041 235.5,222.5C 239.984,211.761 247.984,206.928 259.5,208C 267.715,213.098 267.215,217.265 258,220.5C 256.024,219.457 255.524,218.123 256.5,216.5C 254.926,215.369 253.259,215.202 251.5,216C 243.876,222.415 239.876,230.582 239.5,240.5 Z"/></g>
<g><path style="opacity:1" fill="#f58510" d="M 337.5,219.5 C 336.375,220.652 336.375,221.652 337.5,222.5C 338.825,224.813 340.825,226.479 343.5,227.5C 344.386,228.325 344.719,229.325 344.5,230.5C 340.216,230.531 336.216,229.531 332.5,227.5C 330.983,227.489 329.816,226.823 329,225.5C 328.333,222.5 328.333,219.5 329,216.5C 329.383,215.944 329.883,215.611 330.5,215.5C 333.014,215.246 335.348,214.413 337.5,213C 338.583,210.944 340.25,209.611 342.5,209C 346.5,208.333 350.5,208.333 354.5,209C 354.043,209.414 353.709,209.914 353.5,210.5C 348.518,211.165 343.852,212.665 339.5,215C 338.418,216.33 337.751,217.83 337.5,219.5 Z"/></g>
<g><path style="opacity:1" fill="#ec9339" d="M 337.5,219.5 C 337.751,217.83 338.418,216.33 339.5,215C 343.852,212.665 348.518,211.165 353.5,210.5C 353.709,209.914 354.043,209.414 354.5,209C 350.5,208.333 346.5,208.333 342.5,209C 340.25,209.611 338.583,210.944 337.5,213C 335.348,214.413 333.014,215.246 330.5,215.5C 338.561,206.442 348.061,204.442 359,209.5C 359.986,213.873 358.319,216.873 354,218.5C 352.731,217.095 352.231,215.429 352.5,213.5C 346.818,213.946 341.818,215.946 337.5,219.5 Z"/></g>
<g><path style="opacity:1" fill="#f48616" d="M 320.5,215.5 C 315.833,215.5 311.167,215.5 306.5,215.5C 304.882,219.575 303.882,223.908 303.5,228.5C 308.309,227.787 312.976,226.454 317.5,224.5C 319.785,225.728 319.618,227.061 317,228.5C 308.012,230.438 307.345,233.771 315,238.5C 317.465,239.651 319.965,240.651 322.5,241.5C 324.903,241.695 326.57,242.862 327.5,245C 324.535,247.934 321.202,248.267 317.5,246C 314.433,243.812 311.433,241.645 308.5,239.5C 302.395,233.673 300.062,235.34 301.5,244.5C 299.833,244.5 298.167,244.5 296.5,244.5C 298.215,235.585 299.548,226.585 300.5,217.5C 299.5,217.5 298.5,217.5 297.5,217.5C 296.527,215.932 296.36,214.265 297,212.5C 303.508,209.596 310.341,208.762 317.5,210C 324.893,211.283 327.226,215.45 324.5,222.5C 323.022,222.762 321.689,222.429 320.5,221.5C 321.611,220.389 322.278,219.055 322.5,217.5C 322.253,216.287 321.586,215.62 320.5,215.5 Z"/></g>
<g><path style="opacity:1" fill="#f58409" d="M 290.5,230.5 C 291.142,235.799 290.809,241.132 289.5,246.5C 289.167,246.333 288.833,246.167 288.5,246C 286.092,240.118 285.092,233.951 285.5,227.5C 284.5,227.5 283.5,227.5 282.5,227.5C 282.5,225.167 282.5,222.833 282.5,220.5C 281.5,220.5 280.5,220.5 279.5,220.5C 279.5,221.5 279.5,222.5 279.5,223.5C 277.926,223.937 276.759,224.937 276,226.5C 275.667,226.167 275.333,225.833 275,225.5C 274.056,228.347 274.556,230.847 276.5,233C 278.936,232.947 281.269,233.113 283.5,233.5C 282.376,234.859 281.042,235.859 279.5,236.5C 276.059,236.301 272.726,236.801 269.5,238C 269.653,240.669 269.32,243.503 268.5,246.5C 266.833,246.5 265.167,246.5 263.5,246.5C 264.838,241.149 266.171,235.816 267.5,230.5C 268.5,230.5 269.5,230.5 270.5,230.5C 272.208,223.854 274.708,217.521 278,211.5C 280.957,209.923 283.624,210.256 286,212.5C 286.274,218.301 287.274,223.968 289,229.5C 289.383,230.056 289.883,230.389 290.5,230.5 Z M 279.5,223.5 C 280.117,223.389 280.617,223.056 281,222.5C 281.27,225.224 281.77,227.891 282.5,230.5C 280.5,231.833 278.5,231.833 276.5,230.5C 277.788,228.261 278.788,225.928 279.5,223.5 Z"/></g>
<g><path style="opacity:1" fill="#f4830a" d="M 239.5,240.5 C 239.5,240.833 239.5,241.167 239.5,241.5C 239.414,242.496 239.748,243.329 240.5,244C 243.553,244.179 246.553,244.679 249.5,245.5C 244.24,248.26 239.24,247.927 234.5,244.5C 233.931,241.551 233.598,238.551 233.5,235.5C 233.459,230.961 234.126,226.628 235.5,222.5C 238.457,219.041 241.624,215.708 245,212.5C 247.338,210.973 248.838,211.639 249.5,214.5C 247.263,215.132 245.597,216.465 244.5,218.5C 243.298,221.988 241.798,225.322 240,228.5C 238.472,232.611 238.306,236.611 239.5,240.5 Z"/></g>
<g><path style="opacity:1" fill="#e99b4a" d="M 322.5,241.5 C 319.965,240.651 317.465,239.651 315,238.5C 307.345,233.771 308.012,230.438 317,228.5C 319.618,227.061 319.785,225.728 317.5,224.5C 312.976,226.454 308.309,227.787 303.5,228.5C 303.882,223.908 304.882,219.575 306.5,215.5C 306.325,219.541 306.158,223.541 306,227.5C 312.333,225.594 317.499,222.094 321.5,217C 320.944,216.617 320.611,216.117 320.5,215.5C 321.586,215.62 322.253,216.287 322.5,217.5C 322.278,219.055 321.611,220.389 320.5,221.5C 321.689,222.429 323.022,222.762 324.5,222.5C 327.226,215.45 324.893,211.283 317.5,210C 310.341,208.762 303.508,209.596 297,212.5C 296.36,214.265 296.527,215.932 297.5,217.5C 296.504,217.586 295.671,217.252 295,216.5C 294.202,214.741 294.369,213.074 295.5,211.5C 304.634,206.871 313.967,206.371 323.5,210C 329.218,216.648 328.552,222.648 321.5,228C 317.993,230.254 314.327,232.254 310.5,234C 314.939,235.968 318.939,238.468 322.5,241.5 Z M 306.5,215.5 C 311.167,215.5 315.833,215.5 320.5,215.5C 320.611,216.117 320.944,216.617 321.5,217C 317.499,222.094 312.333,225.594 306,227.5C 306.158,223.541 306.325,219.541 306.5,215.5 Z"/></g>
<g><path style="opacity:1" fill="#eb953d" d="M 337.5,222.5 C 342.465,224.649 347.132,227.316 351.5,230.5C 355.724,236.231 355.057,241.398 349.5,246C 343.125,250.14 336.792,250.306 330.5,246.5C 327.69,241.124 329.357,238.124 335.5,237.5C 335.481,239.06 335.148,240.56 334.5,242C 335.009,243.169 335.842,244.002 337,244.5C 339.447,243.594 341.947,242.761 344.5,242C 349,239.583 349.333,236.916 345.5,234C 341.91,232.47 338.243,231.136 334.5,230C 333.619,229.292 332.953,228.458 332.5,227.5C 336.216,229.531 340.216,230.531 344.5,230.5C 344.719,229.325 344.386,228.325 343.5,227.5C 340.825,226.479 338.825,224.813 337.5,222.5 Z"/></g>
<g><path style="opacity:1" fill="#e8a056" d="M 235.5,222.5 C 234.126,226.628 233.459,230.961 233.5,235.5C 233.598,238.551 233.931,241.551 234.5,244.5C 233.21,243.942 232.377,242.942 232,241.5C 230.694,234.592 231.86,228.258 235.5,222.5 Z"/></g>
<g><path style="opacity:1" fill="#ea9139" d="M 262.5,238.5 C 258.489,243.334 253.489,246.834 247.5,249C 243.218,249.965 239.218,249.298 235.5,247C 234.748,246.329 234.414,245.496 234.5,244.5C 239.24,247.927 244.24,248.26 249.5,245.5C 246.553,244.679 243.553,244.179 240.5,244C 239.748,243.329 239.414,242.496 239.5,241.5C 242.185,243.314 245.185,243.481 248.5,242C 252.606,238.934 256.606,235.768 260.5,232.5C 262.283,234.023 262.949,236.023 262.5,238.5 Z"/></g>
<g><path style="opacity:1" fill="#e89e4d" d="M 267.5,230.5 C 266.171,235.816 264.838,241.149 263.5,246.5C 265.167,246.5 266.833,246.5 268.5,246.5C 269.32,243.503 269.653,240.669 269.5,238C 272.726,236.801 276.059,236.301 279.5,236.5C 277.708,237.309 275.708,237.809 273.5,238C 271.618,240.978 270.118,244.145 269,247.5C 266.501,248.798 264.167,248.464 262,246.5C 261.57,243.808 261.737,241.141 262.5,238.5C 264.167,235.833 265.833,233.167 267.5,230.5 Z"/></g>
<g><path style="opacity:1" fill="#eb9a46" d="M 297.5,217.5 C 298.5,217.5 299.5,217.5 300.5,217.5C 299.548,226.585 298.215,235.585 296.5,244.5C 298.167,244.5 299.833,244.5 301.5,244.5C 300.062,235.34 302.395,233.673 308.5,239.5C 306.565,238.85 304.565,238.517 302.5,238.5C 302.768,241.119 302.435,243.619 301.5,246C 296.842,247.187 294.175,245.353 293.5,240.5C 292.804,242.992 293.137,245.492 294.5,248C 291.8,251.158 288.967,250.991 286,247.5C 285.754,244.11 285.254,240.777 284.5,237.5C 282.955,236.548 281.288,236.215 279.5,236.5C 281.042,235.859 282.376,234.859 283.5,233.5C 281.269,233.113 278.936,232.947 276.5,233C 274.556,230.847 274.056,228.347 275,225.5C 275.333,225.833 275.667,226.167 276,226.5C 276.759,224.937 277.926,223.937 279.5,223.5C 279.5,222.5 279.5,221.5 279.5,220.5C 280.5,220.5 281.5,220.5 282.5,220.5C 282.5,222.833 282.5,225.167 282.5,227.5C 283.5,227.5 284.5,227.5 285.5,227.5C 285.092,233.951 286.092,240.118 288.5,246C 288.833,246.167 289.167,246.333 289.5,246.5C 290.809,241.132 291.142,235.799 290.5,230.5C 291.5,230.5 292.5,230.5 293.5,230.5C 293.351,233.607 293.851,236.607 295,239.5C 297.207,232.234 298.041,224.9 297.5,217.5 Z M 279.5,223.5 C 278.788,225.928 277.788,228.261 276.5,230.5C 278.5,231.833 280.5,231.833 282.5,230.5C 281.77,227.891 281.27,225.224 281,222.5C 280.617,223.056 280.117,223.389 279.5,223.5 Z"/></g>
</svg>
