<?xml version="1.0" encoding="UTF-8"?>
<!DOCTYPE svg PUBLIC "-//W3C//DTD SVG 1.1//EN" "http://www.w3.org/Graphics/SVG/1.1/DTD/svg11.dtd">
<svg xmlns="http://www.w3.org/2000/svg" version="1.1" width="764px" height="326px" style="shape-rendering:geometricPrecision; text-rendering:geometricPrecision; image-rendering:optimizeQuality; fill-rule:evenodd; clip-rule:evenodd" xmlns:xlink="http://www.w3.org/1999/xlink">
<g><path style="opacity:1" fill="#1d1d1d" d="M 110.5,19.5 C 81.6696,20.3323 52.6696,20.8323 23.5,21C 22.6667,21.8333 21.8333,22.6667 21,23.5C 20.5005,29.8246 20.3338,36.1579 20.5,42.5C 19.346,36.013 19.1794,29.3464 20,22.5C 20.8333,21.6667 21.6667,20.8333 22.5,20C 51.8314,19.5 81.1648,19.3334 110.5,19.5 Z"/></g>
<g><path style="opacity:1" fill="#1f1f1f" d="M 526.5,19.5 C 585.834,19.3333 645.168,19.5 704.5,20C 706.058,20.21 707.391,20.71 708.5,21.5C 647.683,20.8521 587.016,20.1855 526.5,19.5 Z"/></g>
<g><path style="opacity:1" fill="#f5f5f5" d="M 110.5,19.5 C 112.167,19.5 113.833,19.5 115.5,19.5C 116.458,20.9616 117.624,22.2949 119,23.5C 119.177,27.3563 119.677,31.023 120.5,34.5C 120.5,35.1667 120.5,35.8333 120.5,36.5C 119.596,37.209 119.263,38.209 119.5,39.5C 121.973,39.9118 123.306,38.9118 123.5,36.5C 124.496,36.4142 125.329,36.7476 126,37.5C 126.75,36.8742 127.584,36.3742 128.5,36C 128.167,35.6667 127.833,35.3333 127.5,35C 129.041,33.6288 130.375,32.1288 131.5,30.5C 131.973,29.0937 132.973,28.427 134.5,28.5C 136.848,28.4077 138.514,27.4077 139.5,25.5C 145.95,21.9094 152.95,19.9094 160.5,19.5C 162.403,20.9473 164.07,22.614 165.5,24.5C 166.164,27.1459 166.498,29.9792 166.5,33C 167.3,38.0916 165.966,42.425 162.5,46C 148.14,48.6917 138.307,56.8584 133,70.5C 130.299,80.0462 129.799,89.7128 131.5,99.5C 131.054,102.01 131.72,104.01 133.5,105.5C 139.669,117.943 149.669,125.61 163.5,128.5C 164.705,129.577 165.372,130.91 165.5,132.5C 165.666,137.844 165.499,143.177 165,148.5C 162.987,152.984 159.487,154.651 154.5,153.5C 152.901,153.768 151.568,153.434 150.5,152.5C 149.07,151.463 147.403,150.796 145.5,150.5C 142.351,150.585 139.684,149.585 137.5,147.5C 137.027,146.094 136.027,145.427 134.5,145.5C 130.428,143.792 127.095,141.126 124.5,137.5C 123.117,134.784 121.117,132.784 118.5,131.5C 117.5,131.167 116.833,130.5 116.5,129.5C 114.559,124.285 112.059,119.285 109,114.5C 107.203,109.977 106.036,105.31 105.5,100.5C 85.9928,100.17 66.6595,100.503 47.5,101.5C 46.6618,101.842 46.3284,102.508 46.5,103.5C 45.6686,118.661 45.1686,133.995 45,149.5C 44.4867,150.527 43.9867,151.527 43.5,152.5C 43.0825,153.222 42.4158,153.722 41.5,154C 35.9836,154.817 30.6503,154.651 25.5,153.5C 24.4863,152.326 23.153,151.66 21.5,151.5C 20.5194,127.212 20.1861,102.878 20.5,78.5C 21.6266,77.8783 22.6266,77.045 23.5,76C 50.5,75.6667 77.5,75.3333 104.5,75C 105.774,74.0228 105.774,73.1894 104.5,72.5C 104.565,69.5718 105.232,66.9052 106.5,64.5C 108.267,62.2084 109.267,59.5418 109.5,56.5C 109.328,55.5084 109.662,54.8417 110.5,54.5C 112.829,52.1587 114.829,49.4921 116.5,46.5C 85.5072,45.5002 54.5072,45.1668 23.5,45.5C 21.5,45.5 20.5,44.5 20.5,42.5C 20.3338,36.1579 20.5005,29.8246 21,23.5C 21.8333,22.6667 22.6667,21.8333 23.5,21C 52.6696,20.8323 81.6696,20.3323 110.5,19.5 Z"/></g>
<g><path style="opacity:1" fill="#272727" d="M 160.5,19.5 C 163.797,19.6317 165.463,21.2984 165.5,24.5C 164.07,22.614 162.403,20.9473 160.5,19.5 Z"/></g>
<g><path style="opacity:1" fill="#f3f2f2" d="M 235.5,19.5 C 259.339,19.1691 283.006,19.5024 306.5,20.5C 319.152,23.1612 329.152,29.8279 336.5,40.5C 337.107,40.3764 337.44,40.0431 337.5,39.5C 337.334,34.4889 337.501,29.4889 338,24.5C 338.498,22.4556 339.665,21.1223 341.5,20.5C 390.501,20.3333 439.501,20.5 488.5,21C 489.705,22.3756 491.038,23.5423 492.5,24.5C 492.666,30.8421 492.5,37.1754 492,43.5C 491.184,44.8228 490.017,45.4894 488.5,45.5C 477.833,45.5 467.167,45.5 456.5,45.5C 456.338,47.5273 456.505,49.5273 457,51.5C 457.383,52.056 457.883,52.3893 458.5,52.5C 460.737,56.5344 462.404,60.8677 463.5,65.5C 463.552,68.3462 464.552,70.6796 466.5,72.5C 472.223,85.6301 477.723,98.9634 483,112.5C 495.382,82.6931 507.382,52.6931 519,22.5C 520.848,19.9586 523.348,18.9586 526.5,19.5C 587.016,20.1855 647.683,20.8521 708.5,21.5C 734.449,31.7183 744.449,50.7183 738.5,78.5C 737.069,79.7804 736.402,81.4471 736.5,83.5C 736.25,85.674 735.25,87.3406 733.5,88.5C 731.738,89.2623 730.738,90.5956 730.5,92.5C 730.167,93.5 729.5,94.1667 728.5,94.5C 726.821,94.2852 725.821,94.9519 725.5,96.5C 724.022,96.238 722.689,96.5713 721.5,97.5C 719.625,98.4095 718.292,99.7428 717.5,101.5C 716.761,101.369 716.094,101.536 715.5,102C 716.758,103.741 717.758,105.574 718.5,107.5C 718.427,109.027 719.094,110.027 720.5,110.5C 720.427,112.027 721.094,113.027 722.5,113.5C 722.427,115.027 723.094,116.027 724.5,116.5C 724.427,118.027 725.094,119.027 726.5,119.5C 726.427,121.027 727.094,122.027 728.5,122.5C 731.241,124.975 733.241,127.975 734.5,131.5C 734.427,133.027 735.094,134.027 736.5,134.5C 738.735,137.291 740.735,140.291 742.5,143.5C 742.871,147.003 741.871,150.003 739.5,152.5C 732.345,153.655 725.012,153.822 717.5,153C 716.584,152.722 715.918,152.222 715.5,151.5C 715.13,148.733 713.796,146.733 711.5,145.5C 711.02,142.995 710.02,140.662 708.5,138.5C 708.043,137.702 707.376,137.369 706.5,137.5C 704.347,135.206 702.68,132.54 701.5,129.5C 700.404,124.957 698.07,121.291 694.5,118.5C 693.404,113.957 691.07,110.291 687.5,107.5C 677.013,106.506 666.346,106.172 655.5,106.5C 655.5,119.833 655.5,133.167 655.5,146.5C 655.919,149.325 654.919,151.491 652.5,153C 614.845,154.496 577.179,154.829 539.5,154C 536.768,153.602 534.935,152.102 534,149.5C 533.333,143.5 533.333,137.5 534,131.5C 535.268,128.402 537.601,126.735 541,126.5C 570.042,127.826 599.042,127.826 628,126.5C 628.667,116.167 628.667,105.833 628,95.5C 626.773,97.7261 624.939,99.2261 622.5,100C 594.5,100.667 566.5,100.667 538.5,100C 536.333,99.1667 534.833,97.6667 534,95.5C 533.333,89.5 533.333,83.5 534,77.5C 534.465,76.0692 535.299,74.9025 536.5,74C 564.772,72.3585 593.105,72.0252 621.5,73C 623.931,73.2949 625.764,74.4616 627,76.5C 627.333,81.8333 627.667,87.1667 628,92.5C 628.333,89.8333 628.667,87.1667 629,84.5C 629.708,83.6195 630.542,82.9528 631.5,82.5C 653.974,81.8644 676.307,81.1977 698.5,80.5C 712.499,76.7007 716.666,68.034 711,54.5C 708.292,50.8957 704.792,48.3957 700.5,47C 688.039,45.8971 675.539,45.3971 663,45.5C 621.837,46.2717 580.67,46.605 539.5,46.5C 536.403,55.8051 532.736,64.8051 528.5,73.5C 527.069,74.7804 526.402,76.4471 526.5,78.5C 526.598,80.5529 525.931,82.2196 524.5,83.5C 520.429,90.3209 517.429,97.6542 515.5,105.5C 514.069,106.78 513.402,108.447 513.5,110.5C 510.372,115.767 508.039,121.434 506.5,127.5C 502.601,135.18 499.267,143.18 496.5,151.5C 495.317,152.504 493.984,153.338 492.5,154C 486.175,154.5 479.842,154.666 473.5,154.5C 472.508,154.672 471.842,154.338 471.5,153.5C 462.197,130.564 452.53,107.897 442.5,85.5C 442.585,82.3511 441.585,79.6845 439.5,77.5C 436.6,72.1517 434.267,66.4851 432.5,60.5C 432.33,59.1779 432.663,58.0113 433.5,57C 432.473,56.4867 431.473,55.9867 430.5,55.5C 430.33,54.1779 430.663,53.0113 431.5,52C 430.473,51.4867 429.473,50.9867 428.5,50.5C 428.715,48.8212 428.048,47.8212 426.5,47.5C 398.294,46.8254 369.961,46.1588 341.5,45.5C 340.702,45.9569 340.369,46.6236 340.5,47.5C 342.018,55.419 342.685,63.419 342.5,71.5C 342.369,72.2389 342.536,72.9056 343,73.5C 370.428,72.3387 397.928,72.172 425.5,73C 427.931,73.2949 429.764,74.4616 431,76.5C 431.795,83.5803 431.628,90.5803 430.5,97.5C 401.263,99.4341 371.93,100.101 342.5,99.5C 340.983,99.4894 339.816,98.8228 339,97.5C 338,94.8333 337,92.1667 336,89.5C 333.963,91.7059 331.797,93.7059 329.5,95.5C 327.821,95.2852 326.821,95.9519 326.5,97.5C 324.821,97.2852 323.821,97.9519 323.5,99.5C 321.811,100.304 320.145,101.304 318.5,102.5C 320.952,105.606 322.952,108.939 324.5,112.5C 324.427,114.027 325.094,115.027 326.5,115.5C 326.427,117.027 327.094,118.027 328.5,118.5C 331.645,122.766 334.812,127.099 338,131.5C 338.5,129.667 339.667,128.5 341.5,128C 356.507,127.689 371.507,127.189 386.5,126.5C 400.671,127.756 414.838,127.756 429,126.5C 431.591,126.565 434.091,127.065 436.5,128C 437.756,128.417 438.423,129.25 438.5,130.5C 438.666,136.842 438.5,143.175 438,149.5C 437.487,150.527 436.987,151.527 436.5,152.5C 436.082,153.222 435.416,153.722 434.5,154C 403.997,154.831 373.664,154.664 343.5,153.5C 335.297,152.776 326.964,152.11 318.5,151.5C 310.606,138.055 302.44,124.722 294,111.5C 293.124,109.365 291.624,108.031 289.5,107.5C 278.779,106.858 268.446,107.525 258.5,109.5C 257.783,123.359 257.116,137.359 256.5,151.5C 256.5,152.167 256.167,152.5 255.5,152.5C 248.825,152.666 242.158,152.5 235.5,152C 234.667,151.167 233.833,150.333 233,149.5C 232.83,140.324 232.33,131.324 231.5,122.5C 231.5,121.833 231.5,121.167 231.5,120.5C 232.529,116.636 232.196,116.636 230.5,120.5C 220.27,139.542 204.437,150.876 183,154.5C 180.333,154.833 178.333,153.833 177,151.5C 176.333,144.5 176.333,137.5 177,130.5C 177.833,129.667 178.667,128.833 179.5,128C 185.356,126.887 190.689,124.721 195.5,121.5C 198.5,120.5 200.5,118.5 201.5,115.5C 203.531,114.461 204.864,112.795 205.5,110.5C 207.104,109.713 207.771,108.38 207.5,106.5C 209.712,103.679 210.712,100.345 210.5,96.5C 210.5,89.8333 210.5,83.1667 210.5,76.5C 210.472,73.0836 209.472,70.0836 207.5,67.5C 206.18,65.5368 204.846,63.5368 203.5,61.5C 203.715,59.8212 203.048,58.8212 201.5,58.5C 199.833,57.5 198.5,56.1667 197.5,54.5C 196.871,52.0029 195.204,50.6696 192.5,50.5C 187.101,48.6464 181.935,46.313 177,43.5C 176.5,36.8417 176.334,30.175 176.5,23.5C 178.196,23.3146 179.529,22.4813 180.5,21C 182.473,20.5045 184.473,20.3379 186.5,20.5C 209.458,25.2857 225.292,38.619 234,60.5C 236.075,66.7084 237.575,73.0417 238.5,79.5C 259.159,80.6664 279.825,80.8331 300.5,80C 302.813,79.338 305.146,78.838 307.5,78.5C 310.732,78.2283 312.732,76.5616 313.5,73.5C 318.575,60.6924 314.909,51.6924 302.5,46.5C 301.048,45.6981 299.382,45.1981 297.5,45C 276.503,44.5 255.503,44.3334 234.5,44.5C 233.542,44.0472 232.708,43.3805 232,42.5C 231.5,36.1754 231.334,29.8421 231.5,23.5C 233.833,23.1667 235.167,21.8333 235.5,19.5 Z"/></g>
<g><path style="opacity:1" fill="#202020" d="M 341.5,20.5 C 390.665,19.335 439.998,19.1684 489.5,20C 491.141,21.129 492.141,22.629 492.5,24.5C 491.038,23.5423 489.705,22.3756 488.5,21C 439.501,20.5 390.501,20.3333 341.5,20.5 Z"/></g>
<g><path style="opacity:1" fill="#6e6e6e" d="M 186.5,20.5 C 184.473,20.3379 182.473,20.5045 180.5,21C 179.529,22.4813 178.196,23.3146 176.5,23.5C 179.002,19.5759 182.336,18.5759 186.5,20.5 Z"/></g>
<g><path style="opacity:1" fill="#373737" d="M 235.5,19.5 C 235.167,21.8333 233.833,23.1667 231.5,23.5C 232.5,21.8333 233.833,20.5 235.5,19.5 Z"/></g>
<g><path style="opacity:1" fill="#505050" d="M 115.5,19.5 C 117.371,19.8588 118.871,20.8588 120,22.5C 120.499,26.4862 120.666,30.4862 120.5,34.5C 119.677,31.023 119.177,27.3563 119,23.5C 117.624,22.2949 116.458,20.9616 115.5,19.5 Z"/></g>
<g><path style="opacity:1" fill="#2f2e2e" d="M 306.5,20.5 C 319.916,22.0309 330.249,28.3643 337.5,39.5C 337.44,40.0431 337.107,40.3764 336.5,40.5C 329.152,29.8279 319.152,23.1612 306.5,20.5 Z"/></g>
<g><path style="opacity:1" fill="#292929" d="M 708.5,21.5 C 725.504,25.6717 736.004,36.3383 740,53.5C 740.667,60.5 740.667,67.5 740,74.5C 739.79,76.0581 739.29,77.3915 738.5,78.5C 744.449,50.7183 734.449,31.7183 708.5,21.5 Z"/></g>
<g><path style="opacity:1" fill="#6f6f6f" d="M 139.5,25.5 C 138.514,27.4077 136.848,28.4077 134.5,28.5C 135.659,26.7497 137.326,25.7497 139.5,25.5 Z"/></g>
<g><path style="opacity:1" fill="#a2a1a2" d="M 131.5,30.5 C 130.375,32.1288 129.041,33.6288 127.5,35C 127.833,35.3333 128.167,35.6667 128.5,36C 127.584,36.3742 126.75,36.8742 126,37.5C 125.329,36.7476 124.496,36.4142 123.5,36.5C 125.878,34.1223 128.545,32.1223 131.5,30.5 Z"/></g>
<g><path style="opacity:1" fill="#7d7979" d="M 120.5,36.5 C 120.369,37.2389 120.536,37.9056 121,38.5C 121.708,37.6195 122.542,36.9528 123.5,36.5C 123.306,38.9118 121.973,39.9118 119.5,39.5C 119.263,38.209 119.596,37.209 120.5,36.5 Z"/></g>
<g><path style="opacity:1" fill="#b6b6b6" d="M 234.5,44.5 C 255.503,44.3334 276.503,44.5 297.5,45C 299.382,45.1981 301.048,45.6981 302.5,46.5C 279.895,45.9353 257.229,45.2686 234.5,44.5 Z"/></g>
<g><path style="opacity:1" fill="#acabab" d="M 23.5,45.5 C 54.5072,45.1668 85.5072,45.5002 116.5,46.5C 114.829,49.4921 112.829,52.1587 110.5,54.5C 111.172,51.6575 112.506,49.1575 114.5,47C 83.9972,46.8324 53.6639,46.3324 23.5,45.5 Z"/></g>
<g><path style="opacity:1" fill="#acacac" d="M 488.5,45.5 C 478.347,46.4942 468.014,46.8276 457.5,46.5C 457.517,48.5648 457.85,50.5648 458.5,52.5C 457.883,52.3893 457.383,52.056 457,51.5C 456.505,49.5273 456.338,47.5273 456.5,45.5C 467.167,45.5 477.833,45.5 488.5,45.5 Z"/></g>
<g><path style="opacity:1" fill="#434343" d="M 426.5,47.5 C 428.048,47.8212 428.715,48.8212 428.5,50.5C 427.599,49.7095 426.932,48.7095 426.5,47.5 Z"/></g>
<g><path style="opacity:1" fill="#797979" d="M 192.5,50.5 C 195.204,50.6696 196.871,52.0029 197.5,54.5C 195.611,53.396 193.945,52.0627 192.5,50.5 Z"/></g>
<g><path style="opacity:1" fill="#8a8a8a" d="M 428.5,50.5 C 429.473,50.9867 430.473,51.4867 431.5,52C 430.663,53.0113 430.33,54.1779 430.5,55.5C 429.069,54.2196 428.402,52.5529 428.5,50.5 Z"/></g>
<g><path style="opacity:1" fill="#8a8a8a" d="M 430.5,55.5 C 431.473,55.9867 432.473,56.4867 433.5,57C 432.663,58.0113 432.33,59.1779 432.5,60.5C 431.069,59.2196 430.402,57.5529 430.5,55.5 Z"/></g>
<g><path style="opacity:1" fill="#282828" d="M 201.5,58.5 C 203.048,58.8212 203.715,59.8212 203.5,61.5C 202.599,60.7095 201.932,59.7095 201.5,58.5 Z"/></g>
<g><path style="opacity:1" fill="#2d2c2c" d="M 340.5,47.5 C 341.963,50.2026 342.796,53.2026 343,56.5C 343.816,61.6842 343.65,66.6842 342.5,71.5C 342.685,63.419 342.018,55.419 340.5,47.5 Z"/></g>
<g><path style="opacity:1" fill="#787878" d="M 109.5,56.5 C 109.267,59.5418 108.267,62.2084 106.5,64.5C 106.733,61.4582 107.733,58.7916 109.5,56.5 Z"/></g>
<g><path style="opacity:1" fill="#222222" d="M 207.5,67.5 C 209.472,70.0836 210.472,73.0836 210.5,76.5C 208.928,73.7846 207.928,70.7846 207.5,67.5 Z"/></g>
<g><path style="opacity:1" fill="#797979" d="M 463.5,65.5 C 465.065,67.5093 466.065,69.8427 466.5,72.5C 464.552,70.6796 463.552,68.3462 463.5,65.5 Z"/></g>
<g><path style="opacity:1" fill="#737373" d="M 104.5,72.5 C 105.774,73.1894 105.774,74.0228 104.5,75C 77.5,75.3333 50.5,75.6667 23.5,76C 22.6266,77.045 21.6266,77.8783 20.5,78.5C 20.5,78.1667 20.5,77.8333 20.5,77.5C 20.9528,76.5416 21.6195,75.7083 22.5,75C 49.5,74.6667 76.5,74.3333 103.5,74C 104.056,73.6174 104.389,73.1174 104.5,72.5 Z"/></g>
<g><path style="opacity:1" fill="#363636" d="M 528.5,73.5 C 528.598,75.5529 527.931,77.2196 526.5,78.5C 526.402,76.4471 527.069,74.7804 528.5,73.5 Z"/></g>
<g><path style="opacity:1" fill="#838383" d="M 313.5,73.5 C 312.732,76.5616 310.732,78.2283 307.5,78.5C 309.46,76.8437 311.46,75.177 313.5,73.5 Z"/></g>
<g><path style="opacity:1" fill="#181818" d="M 20.5,77.5 C 20.5,77.8333 20.5,78.1667 20.5,78.5C 20.1861,102.878 20.5194,127.212 21.5,151.5C 20.8826,151.389 20.3826,151.056 20,150.5C 19.1701,125.997 19.3368,101.663 20.5,77.5 Z"/></g>
<g><path style="opacity:1" fill="#555555" d="M 439.5,77.5 C 441.585,79.6845 442.585,82.3511 442.5,85.5C 440.98,83.1098 439.98,80.4432 439.5,77.5 Z"/></g>
<g><path style="opacity:1" fill="#7c7c7c" d="M 698.5,80.5 C 676.307,81.1977 653.974,81.8644 631.5,82.5C 631.918,81.7784 632.584,81.2784 633.5,81C 655.164,80.5 676.831,80.3334 698.5,80.5 Z"/></g>
<g><path style="opacity:1" fill="#2d2d2d" d="M 738.5,78.5 C 738.598,80.5529 737.931,82.2196 736.5,83.5C 736.402,81.4471 737.069,79.7804 738.5,78.5 Z"/></g>
<g><path style="opacity:1" fill="#444444" d="M 524.5,83.5 C 522.019,91.118 519.019,98.4513 515.5,105.5C 517.429,97.6542 520.429,90.3209 524.5,83.5 Z"/></g>
<g><path style="opacity:1" fill="#2f2f2f" d="M 733.5,88.5 C 733.262,90.4044 732.262,91.7377 730.5,92.5C 730.738,90.5956 731.738,89.2623 733.5,88.5 Z"/></g>
<g><path style="opacity:1" fill="#464646" d="M 728.5,94.5 C 727.71,95.4013 726.71,96.0679 725.5,96.5C 725.821,94.9519 726.821,94.2852 728.5,94.5 Z"/></g>
<g><path style="opacity:1" fill="#4e4e4e" d="M 329.5,95.5 C 328.71,96.4013 327.71,97.0679 326.5,97.5C 326.821,95.9519 327.821,95.2852 329.5,95.5 Z"/></g>
<g><path style="opacity:1" fill="#4a4a4a" d="M 326.5,97.5 C 325.71,98.4013 324.71,99.0679 323.5,99.5C 323.821,97.9519 324.821,97.2852 326.5,97.5 Z"/></g>
<g><path style="opacity:1" fill="#5c5b5b" d="M 725.5,96.5 C 723.206,98.653 720.54,100.32 717.5,101.5C 718.292,99.7428 719.625,98.4095 721.5,97.5C 722.689,96.5713 724.022,96.238 725.5,96.5 Z"/></g>
<g><path style="opacity:1" fill="#545454" d="M 210.5,96.5 C 210.712,100.345 209.712,103.679 207.5,106.5C 208.13,102.952 209.13,99.6189 210.5,96.5 Z"/></g>
<g><path style="opacity:1" fill="#5d5d5d" d="M 430.5,97.5 C 429.942,98.7899 428.942,99.6232 427.5,100C 398.997,100.83 370.664,100.664 342.5,99.5C 371.93,100.101 401.263,99.4341 430.5,97.5 Z"/></g>
<g><path style="opacity:1" fill="#646464" d="M 47.5,101.5 C 66.6595,100.503 85.9928,100.17 105.5,100.5C 106.036,105.31 107.203,109.977 109,114.5C 112.059,119.285 114.559,124.285 116.5,129.5C 109.799,121.421 105.799,112.088 104.5,101.5C 85.5,101.5 66.5,101.5 47.5,101.5 Z"/></g>
<g><path style="opacity:1" fill="#848484" d="M 131.5,99.5 C 132.738,101.214 133.405,103.214 133.5,105.5C 131.72,104.01 131.054,102.01 131.5,99.5 Z"/></g>
<g><path style="opacity:1" fill="#4e4e4e" d="M 515.5,105.5 C 515.598,107.553 514.931,109.22 513.5,110.5C 513.402,108.447 514.069,106.78 515.5,105.5 Z"/></g>
<g><path style="opacity:1" fill="#585858" d="M 207.5,106.5 C 207.771,108.38 207.104,109.713 205.5,110.5C 205.66,108.847 206.326,107.514 207.5,106.5 Z"/></g>
<g><path style="opacity:1" fill="#505050" d="M 718.5,107.5 C 719.906,107.973 720.573,108.973 720.5,110.5C 719.094,110.027 718.427,109.027 718.5,107.5 Z"/></g>
<g><path style="opacity:1" fill="#565656" d="M 205.5,110.5 C 204.864,112.795 203.531,114.461 201.5,115.5C 202.124,113.246 203.457,111.579 205.5,110.5 Z"/></g>
<g><path style="opacity:1" fill="#4d4d4d" d="M 720.5,110.5 C 721.906,110.973 722.573,111.973 722.5,113.5C 721.094,113.027 720.427,112.027 720.5,110.5 Z"/></g>
<g><path style="opacity:1" fill="#7a7a7a" d="M 687.5,107.5 C 691.07,110.291 693.404,113.957 694.5,118.5C 691.931,115.039 689.597,111.372 687.5,107.5 Z"/></g>
<g><path style="opacity:1" fill="#5c5c5c" d="M 324.5,112.5 C 325.906,112.973 326.573,113.973 326.5,115.5C 325.094,115.027 324.427,114.027 324.5,112.5 Z"/></g>
<g><path style="opacity:1" fill="#555555" d="M 442.5,85.5 C 452.53,107.897 462.197,130.564 471.5,153.5C 469.665,152.878 468.498,151.544 468,149.5C 459.21,128.258 450.71,106.925 442.5,85.5 Z"/></g>
<g><path style="opacity:1" fill="#b1b0b0" d="M 46.5,103.5 C 46.6666,119.17 46.4999,134.837 46,150.5C 45.5831,151.756 44.7498,152.423 43.5,152.5C 43.9867,151.527 44.4867,150.527 45,149.5C 45.1686,133.995 45.6686,118.661 46.5,103.5 Z"/></g>
<g><path style="opacity:1" fill="#4a4a4a" d="M 722.5,113.5 C 723.906,113.973 724.573,114.973 724.5,116.5C 723.094,116.027 722.427,115.027 722.5,113.5 Z"/></g>
<g><path style="opacity:1" fill="#505050" d="M 326.5,115.5 C 327.906,115.973 328.573,116.973 328.5,118.5C 327.094,118.027 326.427,117.027 326.5,115.5 Z"/></g>
<g><path style="opacity:1" fill="#6e6e6e" d="M 289.5,107.5 C 291.624,108.031 293.124,109.365 294,111.5C 302.44,124.722 310.606,138.055 318.5,151.5C 308.35,137.213 298.683,122.546 289.5,107.5 Z"/></g>
<g><path style="opacity:1" fill="#313131" d="M 231.5,120.5 C 231.167,120.5 230.833,120.5 230.5,120.5C 232.196,116.636 232.529,116.636 231.5,120.5 Z"/></g>
<g><path style="opacity:1" fill="#464646" d="M 724.5,116.5 C 725.906,116.973 726.573,117.973 726.5,119.5C 725.094,119.027 724.427,118.027 724.5,116.5 Z"/></g>
<g><path style="opacity:1" fill="#7d7d7d" d="M 201.5,115.5 C 200.5,118.5 198.5,120.5 195.5,121.5C 197.167,119.167 199.167,117.167 201.5,115.5 Z"/></g>
<g><path style="opacity:1" fill="#494949" d="M 513.5,110.5 C 511.961,116.566 509.628,122.233 506.5,127.5C 508.039,121.434 510.372,115.767 513.5,110.5 Z"/></g>
<g><path style="opacity:1" fill="#444444" d="M 726.5,119.5 C 727.906,119.973 728.573,120.973 728.5,122.5C 727.094,122.027 726.427,121.027 726.5,119.5 Z"/></g>
<g><path style="opacity:1" fill="#6a6a6a" d="M 687.5,107.5 C 677.167,107.5 666.833,107.5 656.5,107.5C 656.829,120.677 656.495,133.677 655.5,146.5C 655.5,133.167 655.5,119.833 655.5,106.5C 666.346,106.172 677.013,106.506 687.5,107.5 Z"/></g>
<g><path style="opacity:1" fill="#797979" d="M 694.5,118.5 C 698.07,121.291 700.404,124.957 701.5,129.5C 698.931,126.039 696.597,122.372 694.5,118.5 Z"/></g>
<g><path style="opacity:1" fill="#272727" d="M 231.5,122.5 C 232.33,131.324 232.83,140.324 233,149.5C 233.833,150.333 234.667,151.167 235.5,152C 242.158,152.5 248.825,152.666 255.5,152.5C 248.679,153.655 241.679,153.821 234.5,153C 233.667,152.167 232.833,151.333 232,150.5C 231.5,141.173 231.334,131.839 231.5,122.5 Z"/></g>
<g><path style="opacity:1" fill="#9a9a9a" d="M 258.5,109.5 C 258.667,122.837 258.5,136.171 258,149.5C 257.722,150.416 257.222,151.082 256.5,151.5C 257.116,137.359 257.783,123.359 258.5,109.5 Z"/></g>
<g><path style="opacity:1" fill="#a0a0a0" d="M 438.5,130.5 C 439.654,136.987 439.821,143.654 439,150.5C 438.583,151.756 437.75,152.423 436.5,152.5C 436.987,151.527 437.487,150.527 438,149.5C 438.5,143.175 438.666,136.842 438.5,130.5 Z"/></g>
<g><path style="opacity:1" fill="#4a4a4a" d="M 506.5,127.5 C 503.895,135.648 500.895,143.648 497.5,151.5C 497.167,151.5 496.833,151.5 496.5,151.5C 499.267,143.18 502.601,135.18 506.5,127.5 Z"/></g>
<g><path style="opacity:1" fill="#626262" d="M 118.5,131.5 C 121.117,132.784 123.117,134.784 124.5,137.5C 121.855,136.188 119.855,134.188 118.5,131.5 Z"/></g>
<g><path style="opacity:1" fill="#363636" d="M 734.5,131.5 C 735.906,131.973 736.573,132.973 736.5,134.5C 735.094,134.027 734.427,133.027 734.5,131.5 Z"/></g>
<g><path style="opacity:1" fill="#7b7b7b" d="M 706.5,137.5 C 707.376,137.369 708.043,137.702 708.5,138.5C 710.02,140.662 711.02,142.995 711.5,145.5C 709.347,143.206 707.68,140.54 706.5,137.5 Z"/></g>
<g><path style="opacity:1" fill="#1a1a1a" d="M 742.5,143.5 C 743.622,145.288 743.789,147.288 743,149.5C 742.578,151.426 741.411,152.426 739.5,152.5C 741.871,150.003 742.871,147.003 742.5,143.5 Z"/></g>
<g><path style="opacity:1" fill="#353535" d="M 134.5,145.5 C 136.027,145.427 137.027,146.094 137.5,147.5C 135.973,147.573 134.973,146.906 134.5,145.5 Z"/></g>
<g><path style="opacity:1" fill="#737373" d="M 711.5,145.5 C 713.796,146.733 715.13,148.733 715.5,151.5C 713.684,149.882 712.351,147.882 711.5,145.5 Z"/></g>
<g><path style="opacity:1" fill="#191919" d="M 165.5,132.5 C 166.164,135.146 166.498,137.979 166.5,141C 166.709,145.027 166.042,148.86 164.5,152.5C 162.808,153.969 160.808,154.635 158.5,154.5C 156.955,154.489 155.622,154.156 154.5,153.5C 159.487,154.651 162.987,152.984 165,148.5C 165.499,143.177 165.666,137.844 165.5,132.5 Z"/></g>
<g><path style="opacity:1" fill="#2a2a2a" d="M 145.5,150.5 C 147.403,150.796 149.07,151.463 150.5,152.5C 148.302,152.88 146.635,152.213 145.5,150.5 Z"/></g>
<g><path style="opacity:1" fill="#1b1b1b" d="M 21.5,151.5 C 23.153,151.66 24.4863,152.326 25.5,153.5C 23.6203,153.771 22.287,153.104 21.5,151.5 Z"/></g>
<g><path style="opacity:1" fill="#121212" d="M 318.5,151.5 C 326.964,152.11 335.297,152.776 343.5,153.5C 335.493,153.666 327.493,153.5 319.5,153C 318.944,152.617 318.611,152.117 318.5,151.5 Z"/></g>
<g><path style="opacity:1" fill="#090909" d="M 496.5,151.5 C 496.833,151.5 497.167,151.5 497.5,151.5C 496.657,153.173 495.324,154.34 493.5,155C 486.654,155.821 479.987,155.654 473.5,154.5C 479.842,154.666 486.175,154.5 492.5,154C 493.984,153.338 495.317,152.504 496.5,151.5 Z"/></g>
<g><path style="opacity:1" fill="#ab6746" d="M 534.5,167.5 C 528.904,166.29 523.238,165.623 517.5,165.5C 523.636,162.261 529.303,162.928 534.5,167.5 Z"/></g>
<g><path style="opacity:1" fill="#5b2f1e" d="M 423.5,162.5 C 425.823,163.058 428.157,163.725 430.5,164.5C 426.245,166.865 426.579,167.865 431.5,167.5C 428.673,168.368 425.673,168.368 422.5,167.5C 422.64,165.876 421.973,164.71 420.5,164C 421.737,163.768 422.737,163.268 423.5,162.5 Z M 424.5,164.5 C 425.773,165.077 425.773,165.743 424.5,166.5C 423.537,166.03 423.537,165.363 424.5,164.5 Z"/></g>
<g><path style="opacity:1" fill="#7c4732" d="M 517.5,165.5 C 515.562,167.163 513.228,167.829 510.5,167.5C 512.599,166.388 514.933,165.721 517.5,165.5 Z"/></g>
<g><path style="opacity:1" fill="#aa6240" d="M 423.5,162.5 C 422.737,163.268 421.737,163.768 420.5,164C 421.973,164.71 422.64,165.876 422.5,167.5C 425.673,168.368 428.673,168.368 431.5,167.5C 433.138,168.914 434.472,168.58 435.5,166.5C 436.854,167.854 438.188,169.188 439.5,170.5C 438.25,170.577 437.417,171.244 437,172.5C 435.446,170.073 434.279,170.073 433.5,172.5C 428.42,170.23 423.087,168.897 417.5,168.5C 418.609,167.71 419.942,167.21 421.5,167C 418.167,166.667 414.833,166.333 411.5,166C 414.167,165.667 416.833,165.333 419.5,165C 415.579,164.797 411.745,164.297 408,163.5C 404.598,165.253 400.931,166.586 397,167.5C 395.354,165.859 394.354,166.193 394,168.5C 392.698,167.915 391.531,167.249 390.5,166.5C 401.145,162.844 412.145,161.511 423.5,162.5 Z"/></g>
<g><path style="opacity:1" fill="#e8874f" d="M 417.5,168.5 C 401.875,169.151 387.875,174.151 375.5,183.5C 374.596,184.209 374.263,185.209 374.5,186.5C 372.517,186.157 371.183,186.824 370.5,188.5C 370.24,190.595 369.074,191.928 367,192.5C 365.18,191.396 363.68,189.896 362.5,188C 364.293,181.872 367.96,177.205 373.5,174C 379.193,171.485 384.859,168.985 390.5,166.5C 391.531,167.249 392.698,167.915 394,168.5C 394.354,166.193 395.354,165.859 397,167.5C 400.931,166.586 404.598,165.253 408,163.5C 411.745,164.297 415.579,164.797 419.5,165C 416.833,165.333 414.167,165.667 411.5,166C 414.833,166.333 418.167,166.667 421.5,167C 419.942,167.21 418.609,167.71 417.5,168.5 Z"/></g>
<g><path style="opacity:1" fill="#f68c4b" d="M 517.5,165.5 C 523.238,165.623 528.904,166.29 534.5,167.5C 535.321,170.554 535.321,173.554 534.5,176.5C 533.943,174.668 532.943,173.335 531.5,172.5C 527.833,172.5 524.167,172.5 520.5,172.5C 516.073,172.183 511.739,172.183 507.5,172.5C 506.479,171.998 506.312,171.332 507,170.5C 508.518,169.837 509.685,168.837 510.5,167.5C 513.228,167.829 515.562,167.163 517.5,165.5 Z"/></g>
<g><path style="opacity:1" fill="#bb744b" d="M 534.5,167.5 C 539.242,173.325 538.075,177.658 531,180.5C 530.658,178.182 531.158,176.015 532.5,174C 531.944,173.617 531.611,173.117 531.5,172.5C 532.943,173.335 533.943,174.668 534.5,176.5C 535.321,173.554 535.321,170.554 534.5,167.5 Z"/></g>
<g><path style="opacity:1" fill="#c67444" d="M 280.5,177.5 C 275.238,173.959 269.904,173.793 264.5,177C 267.579,177.973 270.579,178.806 273.5,179.5C 271.031,180.569 268.698,181.902 266.5,183.5C 264.996,179.949 262.33,178.782 258.5,180C 257.336,182.328 255.67,184.162 253.5,185.5C 258.205,176.143 265.872,171.977 276.5,173C 278.635,173.876 279.969,175.376 280.5,177.5 Z"/></g>
<g><path style="opacity:1" fill="#cc7846" d="M 439.5,170.5 C 447.694,177.588 450.861,186.588 449,197.5C 448.018,200.929 446.852,204.262 445.5,207.5C 441.849,207.162 440.183,208.828 440.5,212.5C 439.488,215.367 437.488,217.367 434.5,218.5C 432.834,219.666 431.167,219.666 429.5,218.5C 430.63,217.378 431.297,216.044 431.5,214.5C 435.164,210.668 438.664,206.668 442,202.5C 448.402,189.875 445.569,179.875 433.5,172.5C 434.279,170.073 435.446,170.073 437,172.5C 437.417,171.244 438.25,170.577 439.5,170.5 Z"/></g>
<g><path style="opacity:1" fill="#f2884b" d="M 505.5,177.5 C 499.693,179.102 494.027,181.102 488.5,183.5C 486.897,183.688 485.563,183.188 484.5,182C 486.156,180.171 488.156,178.837 490.5,178C 490.167,177.667 489.833,177.333 489.5,177C 491.397,175.89 493.23,175.724 495,176.5C 497.453,174.695 499.953,173.029 502.5,171.5C 504.626,172.786 506.959,173.619 509.5,174C 508.207,174.49 506.873,174.657 505.5,174.5C 505.5,175.5 505.5,176.5 505.5,177.5 Z"/></g>
<g><path style="opacity:1" fill="#eb8647" d="M 280.5,177.5 C 283.969,182.34 284.303,187.507 281.5,193C 279.888,193.72 278.388,193.554 277,192.5C 275.894,188.132 274.728,183.799 273.5,179.5C 270.579,178.806 267.579,177.973 264.5,177C 269.904,173.793 275.238,173.959 280.5,177.5 Z"/></g>
<g><path style="opacity:1" fill="#c97342" d="M 510.5,167.5 C 509.685,168.837 508.518,169.837 507,170.5C 506.312,171.332 506.479,171.998 507.5,172.5C 511.739,172.183 516.073,172.183 520.5,172.5C 515.549,174.272 510.549,175.938 505.5,177.5C 505.5,176.5 505.5,175.5 505.5,174.5C 506.873,174.657 508.207,174.49 509.5,174C 506.959,173.619 504.626,172.786 502.5,171.5C 499.953,173.029 497.453,174.695 495,176.5C 493.23,175.724 491.397,175.89 489.5,177C 489.833,177.333 490.167,177.667 490.5,178C 488.156,178.837 486.156,180.171 484.5,182C 485.563,183.188 486.897,183.688 488.5,183.5C 479.858,188.46 471.192,193.46 462.5,198.5C 462.33,197.178 462.663,196.011 463.5,195C 461.925,195.379 460.425,195.212 459,194.5C 457.261,196.768 455.095,198.435 452.5,199.5C 452.369,198.761 452.536,198.094 453,197.5C 469.976,183.442 489.143,173.442 510.5,167.5 Z"/></g>
<g><path style="opacity:1" fill="#995738" d="M 375.5,183.5 C 376.734,193.489 377.734,203.489 378.5,213.5C 378.24,214.905 377.907,216.238 377.5,217.5C 376.932,209.502 376.099,201.502 375,193.5C 374.617,194.056 374.117,194.389 373.5,194.5C 373.678,193.305 374.011,192.138 374.5,191C 373.529,188.742 372.196,187.909 370.5,188.5C 371.183,186.824 372.517,186.157 374.5,186.5C 374.263,185.209 374.596,184.209 375.5,183.5 Z"/></g>
<g><path style="opacity:1" fill="#995533" d="M 398.5,192.5 C 396.533,192.261 394.699,192.594 393,193.5C 390.816,201.241 387.982,208.575 384.5,215.5C 386.893,207.82 389.393,200.153 392,192.5C 394.274,191.189 396.44,191.189 398.5,192.5 Z"/></g>
<g><path style="opacity:1" fill="#f58c4c" d="M 398.5,192.5 C 399.837,193.315 400.837,194.482 401.5,196C 399.205,199.751 397.205,203.585 395.5,207.5C 394.849,208.091 394.182,208.757 393.5,209.5C 391.12,216.19 388.787,222.857 386.5,229.5C 385.325,229.719 384.325,229.386 383.5,228.5C 384.074,226.941 384.74,225.441 385.5,224C 384.556,221.281 384.223,218.448 384.5,215.5C 387.982,208.575 390.816,201.241 393,193.5C 394.699,192.594 396.533,192.261 398.5,192.5 Z"/></g>
<g><path style="opacity:1" fill="#482610" d="M 249.5,190.5 C 248.552,193.14 247.552,195.807 246.5,198.5C 245.167,200.167 243.833,201.833 242.5,203.5C 244.059,198.712 246.393,194.379 249.5,190.5 Z"/></g>
<g><path style="opacity:1" fill="#e78555" d="M 377.5,217.5 C 376.778,217.918 376.278,218.584 376,219.5C 375.828,212.654 375.328,205.987 374.5,199.5C 373.833,199.167 373.167,198.833 372.5,198.5C 372.833,197.167 373.167,195.833 373.5,194.5C 374.117,194.389 374.617,194.056 375,193.5C 376.099,201.502 376.932,209.502 377.5,217.5 Z"/></g>
<g><path style="opacity:1" fill="#b55f35" d="M 351.5,188.5 C 352.167,183.84 352.333,179.174 352,174.5C 350.745,173.789 349.579,172.956 348.5,172C 346.926,171.301 345.593,171.635 344.5,173C 346.443,174.193 346.276,175.693 344,177.5C 343.503,179.81 343.337,182.143 343.5,184.5C 335.756,194.305 329.256,204.972 324,216.5C 322.644,217.38 321.144,217.714 319.5,217.5C 318.733,218.172 318.066,219.005 317.5,220C 317.827,222.685 317.827,225.518 317.5,228.5C 320.338,230.306 320.005,231.306 316.5,231.5C 316.719,230.325 316.386,229.325 315.5,228.5C 314.41,229.391 314.41,230.391 315.5,231.5C 314.675,232.386 313.675,232.719 312.5,232.5C 312.5,231.5 312.5,230.5 312.5,229.5C 311.5,229.5 310.5,229.5 309.5,229.5C 318.356,210.791 328.523,192.791 340,175.5C 341.833,173.667 343.667,171.833 345.5,170C 348.343,170.115 350.843,171.282 353,173.5C 353.808,178.759 353.308,183.759 351.5,188.5 Z"/></g>
<g><path style="opacity:1" fill="#62361b" d="M 445.5,207.5 C 444.791,208.404 443.791,208.737 442.5,208.5C 442.771,210.38 442.104,211.713 440.5,212.5C 440.183,208.828 441.849,207.162 445.5,207.5 Z"/></g>
<g><path style="opacity:1" fill="#5a160f" d="M 374.5,199.5 C 375.328,205.987 375.828,212.654 376,219.5C 376.278,218.584 376.778,217.918 377.5,217.5C 378.067,219.698 378.067,222.031 377.5,224.5C 376.732,223.737 376.232,222.737 376,221.5C 375.722,222.416 375.222,223.082 374.5,223.5C 374.5,215.5 374.5,207.5 374.5,199.5 Z"/></g>
<g><path style="opacity:1" fill="#a2542d" d="M 340.5,204.5 C 340.721,207.097 341.221,207.097 342,204.5C 341.996,209.941 341.163,215.274 339.5,220.5C 338.167,220.833 338.167,221.167 339.5,221.5C 338.872,225.46 336.872,226.794 333.5,225.5C 334.496,225.586 335.329,225.252 336,224.5C 336.311,222.444 336.811,220.444 337.5,218.5C 337.291,217.914 336.957,217.414 336.5,217C 338.139,213.151 339.472,208.984 340.5,204.5 Z"/></g>
<g><path style="opacity:1" fill="#d87e49" d="M 266.5,183.5 C 257.928,193.913 250.761,205.247 245,217.5C 240.036,233.684 236.202,250.017 233.5,266.5C 234.234,262.56 232.901,261.227 229.5,262.5C 229.237,258.139 230.237,254.139 232.5,250.5C 230.913,248.554 231.246,247.054 233.5,246C 232.446,244.612 232.28,243.112 233,241.5C 233.556,243.595 234.056,243.762 234.5,242C 233.413,238.813 233.58,235.647 235,232.5C 236.063,231.562 237.23,230.562 238.5,229.5C 237.833,228.833 237.167,228.167 236.5,227.5C 236.938,226.494 237.604,226.494 238.5,227.5C 239.426,224.956 240.426,222.456 241.5,220C 240.692,219.692 240.025,219.192 239.5,218.5C 241.333,214.167 243.167,209.833 245,205.5C 246.281,205.619 247.448,205.119 248.5,204C 247.833,203.667 247.167,203.333 246.5,203C 248.688,201.036 248.688,199.536 246.5,198.5C 247.552,195.807 248.552,193.14 249.5,190.5C 250.124,188.246 251.457,186.579 253.5,185.5C 255.67,184.162 257.336,182.328 258.5,180C 262.33,178.782 264.996,179.949 266.5,183.5 Z"/></g>
<g><path style="opacity:1" fill="#bd6f4f" d="M 372.5,198.5 C 373.167,198.833 373.833,199.167 374.5,199.5C 374.5,207.5 374.5,215.5 374.5,223.5C 369.167,223.5 363.833,223.5 358.5,223.5C 362.97,222.514 367.637,222.181 372.5,222.5C 373.396,214.522 373.396,206.522 372.5,198.5 Z"/></g>
<g><path style="opacity:1" fill="#934c28" d="M 319.5,217.5 C 319.721,218.735 320.388,219.735 321.5,220.5C 320.5,222.5 319.5,224.5 318.5,226.5C 322.486,227.065 326.486,226.732 330.5,225.5C 330.389,226.117 330.056,226.617 329.5,227C 332.167,227.333 334.833,227.667 337.5,228C 337.02,232.555 336.687,237.055 336.5,241.5C 334.463,238.711 334.13,235.711 335.5,232.5C 335.192,231.692 334.692,231.025 334,230.5C 328.566,231.787 323.066,232.954 317.5,234C 315.867,234.48 314.534,235.313 313.5,236.5C 313.5,235.5 313.5,234.5 313.5,233.5C 317.832,232.734 322.166,231.9 326.5,231C 323.375,230.456 320.375,229.623 317.5,228.5C 317.827,225.518 317.827,222.685 317.5,220C 318.066,219.005 318.733,218.172 319.5,217.5 Z"/></g>
<g><path style="opacity:1" fill="#cd7645" d="M 395.5,207.5 C 392.334,217.497 388.667,227.33 384.5,237C 386.03,238.12 387.697,238.954 389.5,239.5C 389.5,239.833 389.5,240.167 389.5,240.5C 386.518,240.896 383.851,240.229 381.5,238.5C 384.045,236.216 384.712,233.549 383.5,230.5C 382.154,232.509 380.82,234.509 379.5,236.5C 376.968,237.119 374.635,238.119 372.5,239.5C 369.711,237.205 366.711,237.039 363.5,239C 361.963,240.11 361.297,241.61 361.5,243.5C 365.519,243.354 369.519,243.021 373.5,242.5C 373.869,244.993 373.203,245.66 371.5,244.5C 370.352,243.105 369.352,243.272 368.5,245C 369.094,245.464 369.761,245.631 370.5,245.5C 369.328,246.705 367.995,246.705 366.5,245.5C 365.614,246.325 365.281,247.325 365.5,248.5C 358.439,242.962 359.105,238.462 367.5,235C 369.112,234.28 370.612,234.446 372,235.5C 372.497,233.19 372.663,230.857 372.5,228.5C 362.815,228.422 353.148,228.755 343.5,229.5C 344.263,228.732 345.263,228.232 346.5,228C 345.552,227.517 344.552,227.351 343.5,227.5C 343.025,224.918 343.692,222.918 345.5,221.5C 345.389,222.117 345.056,222.617 344.5,223C 349.155,223.499 353.821,223.666 358.5,223.5C 363.833,223.5 369.167,223.5 374.5,223.5C 375.222,223.082 375.722,222.416 376,221.5C 376.232,222.737 376.732,223.737 377.5,224.5C 378.124,224.917 378.457,225.584 378.5,226.5C 376.531,229.697 376.197,233.03 377.5,236.5C 377.833,236.167 378.167,235.833 378.5,235.5C 380.582,228.424 382.582,221.757 384.5,215.5C 384.223,218.448 384.556,221.281 385.5,224C 384.74,225.441 384.074,226.941 383.5,228.5C 384.325,229.386 385.325,229.719 386.5,229.5C 388.787,222.857 391.12,216.19 393.5,209.5C 394.182,208.757 394.849,208.091 395.5,207.5 Z M 371.5,244.5 C 371.5,245.167 371.167,245.5 370.5,245.5C 369.761,245.631 369.094,245.464 368.5,245C 369.352,243.272 370.352,243.105 371.5,244.5 Z"/></g>
<g><path style="opacity:1" fill="#ed884c" d="M 317.5,228.5 C 320.375,229.623 323.375,230.456 326.5,231C 322.166,231.9 317.832,232.734 313.5,233.5C 313.5,234.5 313.5,235.5 313.5,236.5C 312.075,238.031 311.409,237.698 311.5,235.5C 311.265,234.903 310.765,234.57 310,234.5C 308.523,235.444 307.523,236.777 307,238.5C 306.196,237.196 305.029,236.529 303.5,236.5C 295.815,238.719 288.148,240.385 280.5,241.5C 277.167,239.841 275.5,237.175 275.5,233.5C 278.35,233.636 281.183,233.969 284,234.5C 292.543,232.993 301.043,231.326 309.5,229.5C 310.5,229.5 311.5,229.5 312.5,229.5C 312.5,230.5 312.5,231.5 312.5,232.5C 313.675,232.719 314.675,232.386 315.5,231.5C 314.41,230.391 314.41,229.391 315.5,228.5C 316.386,229.325 316.719,230.325 316.5,231.5C 320.005,231.306 320.338,230.306 317.5,228.5 Z"/></g>
<g><path style="opacity:1" fill="#ab6038" d="M 431.5,214.5 C 431.297,216.044 430.63,217.378 429.5,218.5C 431.167,219.666 432.834,219.666 434.5,218.5C 433.426,220.284 431.76,221.451 429.5,222C 429.957,222.414 430.291,222.914 430.5,223.5C 425.884,227.811 420.884,231.644 415.5,235C 413.866,235.494 412.199,235.66 410.5,235.5C 410.5,236.5 410.5,237.5 410.5,238.5C 408.516,238.383 406.85,239.05 405.5,240.5C 403.786,239.391 403.119,240.058 403.5,242.5C 402.209,242.263 401.209,242.596 400.5,243.5C 399.25,243.423 398.417,242.756 398,241.5C 397.586,241.957 397.086,242.291 396.5,242.5C 394.271,241.423 391.937,240.756 389.5,240.5C 389.5,240.167 389.5,239.833 389.5,239.5C 393.049,239.561 396.382,238.727 399.5,237C 410.877,230.447 421.544,222.947 431.5,214.5 Z"/></g>
<g><path style="opacity:1" fill="#8c4625" d="M 246.5,198.5 C 248.688,199.536 248.688,201.036 246.5,203C 247.167,203.333 247.833,203.667 248.5,204C 247.448,205.119 246.281,205.619 245,205.5C 243.167,209.833 241.333,214.167 239.5,218.5C 240.025,219.192 240.692,219.692 241.5,220C 240.426,222.456 239.426,224.956 238.5,227.5C 237.604,226.494 236.938,226.494 236.5,227.5C 237.167,228.167 237.833,228.833 238.5,229.5C 237.23,230.562 236.063,231.562 235,232.5C 233.58,235.647 233.413,238.813 234.5,242C 234.056,243.762 233.556,243.595 233,241.5C 232.28,243.112 232.446,244.612 233.5,246C 231.246,247.054 230.913,248.554 232.5,250.5C 230.237,254.139 229.237,258.139 229.5,262.5C 228.591,261.682 228.091,260.016 228,257.5C 227.624,262.003 227.791,266.503 228.5,271C 228.333,272.833 228.167,274.667 228,276.5C 227.667,273.5 227.333,270.5 227,267.5C 225.898,275.088 226.731,282.421 229.5,289.5C 231.58,292.227 233.58,294.894 235.5,297.5C 231.092,295.586 228.259,292.252 227,287.5C 224.541,258.019 229.708,230.019 242.5,203.5C 243.833,201.833 245.167,200.167 246.5,198.5 Z"/></g>
<g><path style="opacity:1" fill="#ef884a" d="M 389.5,240.5 C 391.937,240.756 394.271,241.423 396.5,242.5C 397.086,242.291 397.586,241.957 398,241.5C 398.417,242.756 399.25,243.423 400.5,243.5C 401.506,244.396 401.506,245.062 400.5,245.5C 395.362,245.999 395.362,246.999 400.5,248.5C 400.631,249.239 400.464,249.906 400,250.5C 398.989,249.663 397.822,249.33 396.5,249.5C 393.833,248.833 391.167,248.167 388.5,247.5C 386.612,246.725 384.612,246.725 382.5,247.5C 382.473,249.199 381.806,250.533 380.5,251.5C 377.4,255.063 376.067,259.397 376.5,264.5C 374.254,268.805 372.92,273.471 372.5,278.5C 372.5,278.833 372.5,279.167 372.5,279.5C 371.883,279.611 371.383,279.944 371,280.5C 370.503,283.146 370.336,285.813 370.5,288.5C 370.768,290.099 370.434,291.432 369.5,292.5C 366.821,295.216 365.488,298.55 365.5,302.5C 364.167,302.5 362.833,302.5 361.5,302.5C 359.899,301.481 358.899,299.981 358.5,298C 364.15,283.194 367.984,268.694 370,254.5C 370.654,255.696 371.154,255.696 371.5,254.5C 368.485,253.485 366.485,251.485 365.5,248.5C 365.281,247.325 365.614,246.325 366.5,245.5C 367.995,246.705 369.328,246.705 370.5,245.5C 371.167,245.5 371.5,245.167 371.5,244.5C 373.203,245.66 373.869,244.993 373.5,242.5C 369.519,243.021 365.519,243.354 361.5,243.5C 361.297,241.61 361.963,240.11 363.5,239C 366.711,237.039 369.711,237.205 372.5,239.5C 374.635,238.119 376.968,237.119 379.5,236.5C 380.82,234.509 382.154,232.509 383.5,230.5C 384.712,233.549 384.045,236.216 381.5,238.5C 383.851,240.229 386.518,240.896 389.5,240.5 Z"/></g>
<g><path style="opacity:1" fill="#9b502d" d="M 336.5,241.5 C 337.15,245.607 336.15,249.107 333.5,252C 334.544,254.882 335.21,257.882 335.5,261C 333.924,265.682 333.257,270.516 333.5,275.5C 332.833,275.5 332.5,275.833 332.5,276.5C 331.631,274.016 330.964,271.349 330.5,268.5C 331.221,265.436 332.555,262.769 334.5,260.5C 331.648,257.575 330.982,254.242 332.5,250.5C 333.376,249.749 334.376,249.249 335.5,249C 332.8,248.051 331.967,246.217 333,243.5C 333.71,242.027 334.876,241.36 336.5,241.5 Z"/></g>
<g><path style="opacity:1" fill="#68351b" d="M 311.5,235.5 C 311.409,237.698 312.075,238.031 313.5,236.5C 311.012,244.129 308.012,251.462 304.5,258.5C 306.227,251.989 308.561,245.655 311.5,239.5C 307.902,238.384 307.902,237.05 311.5,235.5 Z"/></g>
<g><path style="opacity:1" fill="#7b4526" d="M 388.5,247.5 C 386.751,250.375 384.085,251.708 380.5,251.5C 381.806,250.533 382.473,249.199 382.5,247.5C 384.612,246.725 386.612,246.725 388.5,247.5 Z"/></g>
<g><path style="opacity:1" fill="#6e3217" d="M 400.5,245.5 C 403.139,247.62 406.139,249.12 409.5,250C 412.023,251.36 414.023,253.193 415.5,255.5C 414.833,255.5 414.167,255.5 413.5,255.5C 412.209,255.737 411.209,255.404 410.5,254.5C 413.001,254.489 413.168,253.822 411,252.5C 410.601,252.728 410.435,253.062 410.5,253.5C 409.209,253.737 408.209,253.404 407.5,252.5C 409.975,252.253 409.975,251.587 407.5,250.5C 406.893,250.624 406.56,250.957 406.5,251.5C 404.847,251.34 403.514,250.674 402.5,249.5C 401.375,250.348 401.375,251.348 402.5,252.5C 400.181,252.008 398.181,251.008 396.5,249.5C 397.822,249.33 398.989,249.663 400,250.5C 400.464,249.906 400.631,249.239 400.5,248.5C 395.362,246.999 395.362,245.999 400.5,245.5 Z M 406.5,251.5 C 406.56,250.957 406.893,250.624 407.5,250.5C 409.975,251.587 409.975,252.253 407.5,252.5C 407.5,251.833 407.167,251.5 406.5,251.5 Z"/></g>
<g><path style="opacity:1" fill="#5d2e12" d="M 402.5,252.5 C 405.326,252.998 407.66,254.331 409.5,256.5C 406.669,255.921 404.336,254.588 402.5,252.5 Z"/></g>
<g><path style="opacity:1" fill="#925637" d="M 380.5,251.5 C 379.939,256.176 378.606,260.509 376.5,264.5C 376.067,259.397 377.4,255.063 380.5,251.5 Z"/></g>
<g><path style="opacity:1" fill="#c56e3d" d="M 311.5,235.5 C 307.902,237.05 307.902,238.384 311.5,239.5C 308.561,245.655 306.227,251.989 304.5,258.5C 304.204,260.403 303.537,262.07 302.5,263.5C 302.808,261.076 302.474,258.743 301.5,256.5C 301.331,257.397 300.998,258.397 300.5,259.5C 299.914,259.291 299.414,258.957 299,258.5C 298.241,260.063 297.074,261.063 295.5,261.5C 298.591,254.064 301.591,246.564 304.5,239C 304.167,238.5 303.833,238 303.5,237.5C 295.972,240.409 288.305,241.743 280.5,241.5C 288.148,240.385 295.815,238.719 303.5,236.5C 305.029,236.529 306.196,237.196 307,238.5C 307.523,236.777 308.523,235.444 310,234.5C 310.765,234.57 311.265,234.903 311.5,235.5 Z"/></g>
<g><path style="opacity:1" fill="#f78c4a" d="M 302.5,263.5 C 302.5,263.833 302.5,264.167 302.5,264.5C 300.297,269.219 297.797,273.886 295,278.5C 294.064,282.114 293.564,285.78 293.5,289.5C 290.07,290.245 288.403,288.911 288.5,285.5C 289.623,281.256 291.29,277.256 293.5,273.5C 294.313,269.838 294.979,266.172 295.5,262.5C 295.5,262.167 295.5,261.833 295.5,261.5C 297.074,261.063 298.241,260.063 299,258.5C 299.414,258.957 299.914,259.291 300.5,259.5C 300.998,258.397 301.331,257.397 301.5,256.5C 302.474,258.743 302.808,261.076 302.5,263.5 Z"/></g>
<g><path style="opacity:1" fill="#e58248" d="M 351.5,188.5 C 349.5,199.502 347.5,210.502 345.5,221.5C 343.692,222.918 343.025,224.918 343.5,227.5C 344.552,227.351 345.552,227.517 346.5,228C 345.263,228.232 344.263,228.732 343.5,229.5C 342.624,232.613 341.291,235.613 339.5,238.5C 339.752,243.393 339.752,248.226 339.5,253C 339.397,257.248 338.897,257.414 338,253.5C 337.833,254.167 337.667,254.833 337.5,255.5C 337.972,268.686 338.972,281.686 340.5,294.5C 340.833,297.167 341.167,299.833 341.5,302.5C 340.5,302.5 339.5,302.5 338.5,302.5C 335.972,300.11 334.472,297.11 334,293.5C 333.672,287.741 333.172,282.075 332.5,276.5C 333.167,276.5 333.5,276.167 333.5,275.5C 333.257,270.516 333.924,265.682 335.5,261C 335.21,257.882 334.544,254.882 333.5,252C 336.15,249.107 337.15,245.607 336.5,241.5C 336.687,237.055 337.02,232.555 337.5,228C 334.833,227.667 332.167,227.333 329.5,227C 330.056,226.617 330.389,226.117 330.5,225.5C 331.5,225.5 332.5,225.5 333.5,225.5C 336.872,226.794 338.872,225.46 339.5,221.5C 339.5,221.167 339.5,220.833 339.5,220.5C 341.163,215.274 341.996,209.941 342,204.5C 341.221,207.097 340.721,207.097 340.5,204.5C 341.32,198.065 342.654,191.731 344.5,185.5C 344.376,184.893 344.043,184.56 343.5,184.5C 343.337,182.143 343.503,179.81 344,177.5C 346.276,175.693 346.443,174.193 344.5,173C 345.593,171.635 346.926,171.301 348.5,172C 349.579,172.956 350.745,173.789 352,174.5C 352.333,179.174 352.167,183.84 351.5,188.5 Z"/></g>
<g><path style="opacity:1" fill="#d97d47" d="M 275.5,258.5 C 273.181,261.639 271.515,265.139 270.5,269C 268.793,270.509 267.127,272.009 265.5,273.5C 265.297,271.61 265.963,270.11 267.5,269C 267,268.5 266.5,268 266,267.5C 265.241,269.063 264.074,270.063 262.5,270.5C 266.384,262.732 269.717,254.732 272.5,246.5C 274.605,249.212 276.272,252.212 277.5,255.5C 276.807,256.518 276.141,257.518 275.5,258.5 Z"/></g>
<g><path style="opacity:1" fill="#c06e40" d="M 454.5,279.5 C 455.15,277.565 455.483,275.565 455.5,273.5C 459.339,272.95 459.339,271.95 455.5,270.5C 454.274,272.278 452.607,273.278 450.5,273.5C 457.304,265.426 465.971,260.426 476.5,258.5C 476.649,259.552 476.483,260.552 476,261.5C 469.334,267.991 462.167,273.991 454.5,279.5 Z"/></g>
<g><path style="opacity:1" fill="#824627" d="M 275.5,258.5 C 276.043,258.56 276.376,258.893 276.5,259.5C 273.002,267.829 269.002,275.829 264.5,283.5C 264.64,281.876 263.973,280.71 262.5,280C 263.862,277.966 264.862,275.799 265.5,273.5C 267.127,272.009 268.793,270.509 270.5,269C 271.515,265.139 273.181,261.639 275.5,258.5 Z"/></g>
<g><path style="opacity:1" fill="#b76941" d="M 343.5,229.5 C 339.996,251.055 338.996,272.722 340.5,294.5C 338.972,281.686 337.972,268.686 337.5,255.5C 337.667,254.833 337.833,254.167 338,253.5C 338.897,257.414 339.397,257.248 339.5,253C 339.752,248.226 339.752,243.393 339.5,238.5C 341.291,235.613 342.624,232.613 343.5,229.5 Z"/></g>
<g><path style="opacity:1" fill="#582e17" d="M 376.5,264.5 C 375.769,269.438 374.435,274.105 372.5,278.5C 372.92,273.471 374.254,268.805 376.5,264.5 Z"/></g>
<g><path style="opacity:1" fill="#d17945" d="M 462.5,198.5 C 456.987,202.227 453.487,207.227 452,213.5C 463.293,221.556 474.46,229.723 485.5,238C 499.633,254.304 497.967,269.304 480.5,283C 475.361,286.88 469.694,289.714 463.5,291.5C 463.5,290.5 463.5,289.5 463.5,288.5C 464.552,288.649 465.552,288.483 466.5,288C 464.167,287.667 461.833,287.333 459.5,287C 458.748,286.329 458.414,285.496 458.5,284.5C 475.035,281.627 486.035,272.294 491.5,256.5C 489.305,249.788 485.305,244.288 479.5,240C 471.5,235 463.5,230 455.5,225C 452.979,222.78 450.812,220.28 449,217.5C 446.292,210.627 447.459,204.627 452.5,199.5C 455.095,198.435 457.261,196.768 459,194.5C 460.425,195.212 461.925,195.379 463.5,195C 462.663,196.011 462.33,197.178 462.5,198.5 Z"/></g>
<g><path style="opacity:1" fill="#f4894a" d="M 265.5,273.5 C 264.862,275.799 263.862,277.966 262.5,280C 263.973,280.71 264.64,281.876 264.5,283.5C 262.847,284.605 261.18,284.771 259.5,284C 259.455,291.016 256.455,292.849 250.5,289.5C 253.821,284.848 257.487,280.515 261.5,276.5C 262.466,274.604 262.799,272.604 262.5,270.5C 264.074,270.063 265.241,269.063 266,267.5C 266.5,268 267,268.5 267.5,269C 265.963,270.11 265.297,271.61 265.5,273.5 Z"/></g>
<g><path style="opacity:1" fill="#d17b49" d="M 295.5,262.5 C 294.979,266.172 294.313,269.838 293.5,273.5C 291.29,277.256 289.623,281.256 288.5,285.5C 288.403,288.911 290.07,290.245 293.5,289.5C 293.564,285.78 294.064,282.114 295,278.5C 297.797,273.886 300.297,269.219 302.5,264.5C 299.842,272.809 297.175,281.143 294.5,289.5C 290.323,291.54 287.656,290.374 286.5,286C 288.135,280.095 289.969,274.261 292,268.5C 292.716,266.121 293.883,264.121 295.5,262.5 Z"/></g>
<g><path style="opacity:1" fill="#b3673e" d="M 400.5,243.5 C 415.808,248.975 426.308,259.308 432,274.5C 432.824,277.882 432.657,281.216 431.5,284.5C 430.5,283.833 429.5,283.167 428.5,282.5C 425.079,271.638 418.745,262.971 409.5,256.5C 407.66,254.331 405.326,252.998 402.5,252.5C 401.375,251.348 401.375,250.348 402.5,249.5C 403.514,250.674 404.847,251.34 406.5,251.5C 407.167,251.5 407.5,251.833 407.5,252.5C 408.209,253.404 409.209,253.737 410.5,253.5C 410.5,253.833 410.5,254.167 410.5,254.5C 411.209,255.404 412.209,255.737 413.5,255.5C 413.842,256.338 414.508,256.672 415.5,256.5C 415.5,256.167 415.5,255.833 415.5,255.5C 414.023,253.193 412.023,251.36 409.5,250C 406.139,249.12 403.139,247.62 400.5,245.5C 401.506,245.062 401.506,244.396 400.5,243.5 Z M 415.5,256.5 C 417.027,256.427 418.027,257.094 418.5,258.5C 416.973,258.573 415.973,257.906 415.5,256.5 Z M 410.5,254.5 C 410.5,254.167 410.5,253.833 410.5,253.5C 410.435,253.062 410.601,252.728 411,252.5C 413.168,253.822 413.001,254.489 410.5,254.5 Z M 406.5,251.5 C 406.56,250.957 406.893,250.624 407.5,250.5C 409.975,251.587 409.975,252.253 407.5,252.5C 407.5,251.833 407.167,251.5 406.5,251.5 Z"/></g>
<g><path style="opacity:1" fill="#49160a" d="M 372.5,279.5 C 372.01,282.655 371.344,285.655 370.5,288.5C 370.336,285.813 370.503,283.146 371,280.5C 371.383,279.944 371.883,279.611 372.5,279.5 Z"/></g>
<g><path style="opacity:1" fill="#ee894c" d="M 229.5,262.5 C 232.901,261.227 234.234,262.56 233.5,266.5C 233.005,275.618 234.005,284.284 236.5,292.5C 236.414,293.496 236.748,294.329 237.5,295C 241.855,294.581 246.188,294.747 250.5,295.5C 245.838,298.497 240.838,299.164 235.5,297.5C 233.58,294.894 231.58,292.227 229.5,289.5C 226.731,282.421 225.898,275.088 227,267.5C 227.333,270.5 227.667,273.5 228,276.5C 228.167,274.667 228.333,272.833 228.5,271C 227.791,266.503 227.624,262.003 228,257.5C 228.091,260.016 228.591,261.682 229.5,262.5 Z"/></g>
<g><path style="opacity:1" fill="#de7f46" d="M 454.5,279.5 C 454.489,281.017 453.823,282.184 452.5,283C 454.088,285.479 456.088,285.979 458.5,284.5C 458.414,285.496 458.748,286.329 459.5,287C 461.833,287.333 464.167,287.667 466.5,288C 465.552,288.483 464.552,288.649 463.5,288.5C 463.5,289.5 463.5,290.5 463.5,291.5C 454.033,295.333 448.699,292.333 447.5,282.5C 447.531,279.074 448.531,276.074 450.5,273.5C 452.607,273.278 454.274,272.278 455.5,270.5C 459.339,271.95 459.339,272.95 455.5,273.5C 455.483,275.565 455.15,277.565 454.5,279.5 Z"/></g>
<g><path style="opacity:1" fill="#ca7745" d="M 262.5,270.5 C 262.799,272.604 262.466,274.604 261.5,276.5C 257.487,280.515 253.821,284.848 250.5,289.5C 256.455,292.849 259.455,291.016 259.5,284C 261.18,284.771 262.847,284.605 264.5,283.5C 260.993,290.506 255.66,295.673 248.5,299C 243.864,299.939 239.531,299.439 235.5,297.5C 240.838,299.164 245.838,298.497 250.5,295.5C 246.188,294.747 241.855,294.581 237.5,295C 236.748,294.329 236.414,293.496 236.5,292.5C 237.531,293.355 238.697,294.022 240,294.5C 243.092,293.076 245.926,291.243 248.5,289C 254.038,283.393 258.704,277.226 262.5,270.5 Z"/></g>
<g><path style="opacity:1" fill="#422117" d="M 369.5,292.5 C 368.194,296.153 366.861,299.819 365.5,303.5C 363.969,304.421 362.635,304.088 361.5,302.5C 362.833,302.5 364.167,302.5 365.5,302.5C 365.488,298.55 366.821,295.216 369.5,292.5 Z"/></g>
<g><path style="opacity:1" fill="#925b40" d="M 340.5,294.5 C 342.208,297.95 343.541,301.617 344.5,305.5C 341.687,305.975 339.687,304.975 338.5,302.5C 339.5,302.5 340.5,302.5 341.5,302.5C 341.167,299.833 340.833,297.167 340.5,294.5 Z"/></g>
</svg>
